<svg xmlns="http://www.w3.org/2000/svg" viewBox="0 0 30 20">
  <path fill="#DE2910" d="M0 0h30v20H0z"/>
  <path fill="#FFDE00" d="m5 2 1.12 3.45h3.63L6.82 7.58l1.12 3.45L5 8.9l-2.94 2.13 1.12-3.45L.25 5.45h3.63L5 2Zm6.06.62.28.87.91.01-.73.53.27.87-.73-.52-.74.52.28-.87-.74-.53.92-.01.28-.87Zm2.13 2.25.28.87.92.01-.74.53.28.87-.74-.52-.74.52.28-.87-.74-.53.92-.01.28-.87Zm-.08 3.18.28.87.92.01-.74.53.28.87-.74-.52-.74.52.28-.87-.74-.53.92-.01.28-.87Zm-2.05 2.24.28.87.91.01-.73.53.27.87-.73-.52-.74.52.28-.87-.74-.53.92-.01.28-.87Z"/>
</svg>
