<svg xmlns="http://www.w3.org/2000/svg" viewBox="0 0 64 64">
  <rect width="64" height="64" rx="14" fill="#f26f21"/>
  <circle cx="45" cy="15" r="4" fill="#fff" opacity=".92"/>
  <circle cx="51" cy="25" r="2.5" fill="#fff" opacity=".72"/>
  <path
    fill="#fff"
    d="M25 10h14v7.2c0 2.2.9 4.3 2.5 5.8l2.1 2a8 8 0 0 1 2.4 5.7V49a7 7 0 0 1-7 7H25a7 7 0 0 1-7-7V30.7a8 8 0 0 1 2.4-5.7l2.1-2a8 8 0 0 0 2.5-5.8V10Z"
  />
  <path fill="#f26f21" d="M25 29h14a3 3 0 0 1 3 3v13a3 3 0 0 1-3 3H25a3 3 0 0 1-3-3V32a3 3 0 0 1 3-3Z"/>
  <path fill="#fff" d="M27 35h10v3H27zm0 6h7v3h-7z"/>
  <path fill="#fff" opacity=".5" d="M28 17h8v4h-8z"/>
</svg>
